Coordinates
version=1
nRows=5
nColumns=63
inDegrees=yes

Units are S.I. units (second, meters, Newtons, ...)
If the header above contains a line with 'inDegrees', this indicates whether rotational values are in degrees (yes) or radians (no).

endheader
time	pelvis_tilt	pelvis_list	pelvis_rotation	pelvis_tx	pelvis_ty	pelvis_tz	hip_flexion_r	hip_adduction_r	hip_rotation_r	knee_angle_r	knee_angle_r_beta	ankle_angle_r	subtalar_angle_r	mtp_angle_r	hip_flexion_l	hip_adduction_l	hip_rotation_l	knee_angle_l	knee_angle_l_beta	ankle_angle_l	subtalar_angle_l	mtp_angle_l	L5_S1_Flex_Ext	L5_S1_Lat_Bending	L5_S1_axial_rotation	L4_L5_Flex_Ext	L4_L5_Lat_Bending	L4_L5_axial_rotation	L3_L4_Flex_Ext	L3_L4_Lat_Bending	L3_L4_axial_rotation	L2_L3_Flex_Ext	L2_L3_Lat_Bending	L2_L3_axial_rotation	L1_L2_Flex_Ext	L1_L2_Lat_Bending	L1_L2_axial_rotation	L1_T12_Flex_Ext	L1_T12_Lat_Bending	L1_T12_axial_rotation	Abs_r3	Abs_r2	Abs_r1	Abs_t1	Abs_t2	neck_flexion	neck_bending	neck_rotation	arm_flex_r	arm_add_r	arm_rot_r	elbow_flex_r	pro_sup_r	wrist_flex_r	wrist_dev_r	arm_flex_l	arm_add_l	arm_rot_l	elbow_flex_l	pro_sup_l	wrist_flex_l	wrist_dev_l
     14.70000000	      3.72948823	      1.34161618	    182.32226458	     -0.44254521	      0.88328361	      0.72578121	     18.94822469	      0.76722825	    -18.91124945	     22.36413899	      0.39032786	     16.10791314	      3.30497623	      0.00000000	     17.66348879	     -5.85218584	     -0.59101234	     75.32731485	      1.31470966	      5.64829232	    -19.22399358	      0.00000000	     -0.00789691	      0.03267449	     -0.44310651	     -0.01466535	      0.04345707	     -0.47080067	     -0.01297383	      0.07944475	     -0.47080067	     -0.00902538	      0.07944475	     -0.38771820	     -0.00733307	      0.06662982	     -0.36002404	     -0.00451229	      0.05061278	     -0.33232989	     -0.05640684	      0.36962036	     -2.46442550	      0.00000000	      0.00000000	      0.00000000	      0.00000000	      0.00000000	    -16.08596690	     -8.52218191	     -1.39910884	     27.84055830	     39.40691422	      0.00000000	      5.00000014	     -3.95094027	    -11.88176863	     -1.10614279	     40.44406977	     47.85410241	      0.00000000	      5.00000014
     14.73333333	      3.42624633	      1.42559934	    180.65864388	     -0.48057026	      0.88821738	      0.72485175	     15.57276260	      1.29123306	    -18.16186291	     21.74478058	      0.37951802	     17.36998357	      5.75509146	      0.00000000	     22.83296671	     -6.39583553	     -1.11876382	     76.81448731	      1.34066572	      7.74385501	    -19.31653677	      0.00000000	     -0.00506600	      0.05616152	     -0.03050159	     -0.00940807	      0.07469482	     -0.03240794	     -0.00832294	      0.13655112	     -0.03240794	     -0.00578994	      0.13655112	     -0.02668889	     -0.00470429	      0.11452457	     -0.02478254	     -0.00289471	      0.08699420	     -0.02287619	     -0.03618596	      0.63531036	     -0.16964069	      0.00000000	      0.00000000	      0.00000000	      0.00000000	      0.00000000	    -13.33352493	     -9.07015028	     -1.45388613	     27.71000304	     39.23062908	      0.00000000	      5.00000014	     -5.62995939	    -11.43325656	      0.88444344	     38.24041307	     47.78888938	      0.00000000	      5.00000014
     14.76666667	      3.22951984	      1.50214775	    179.21319860	     -0.51645748	      0.89238681	      0.72453567	     12.19786636	      1.66620592	    -17.39918322	     20.55947125	      0.35883047	     18.22303316	      7.37735579	      0.00000000	     27.58956385	     -6.98824636	     -1.90374310	     75.09485577	      1.31065248	      9.69152238	    -19.29218868	      0.00000000	     -0.00625480	      0.08285861	      0.28385931	     -0.01161578	      0.11020196	      0.30160052	     -0.01027601	      0.20146244	      0.30160052	     -0.00714861	      0.20146244	      0.24837690	     -0.00580820	      0.16896529	      0.23063569	     -0.00357399	      0.12834799	      0.21289448	     -0.04467739	      0.93731322	      1.57874033	      0.00000000	      0.00000000	      0.00000000	      0.00000000	      0.00000000	    -10.13254225	    -10.05021429	     -0.44609095	     27.76850868	     39.42257557	      0.00000000	      5.00000014	     -7.46558825	    -11.17340289	      2.98079949	     35.61631626	     47.98981312	      0.00000000	      5.00000014
     14.80000000	      3.28643476	      1.45289591	    178.02135021	     -0.55003086	      0.89490594	      0.72498039	      9.43094900	      1.40742464	    -18.28090411	     19.95307047	      0.34824678	     19.55238104	     10.17034411	      0.00000000	     31.63595690	     -7.38682414	     -2.79639614	     70.03990587	      1.22242697	     10.82434633	    -19.12577154	      0.00000000	     -0.00537813	      0.10167607	      0.53673710	     -0.00998773	      0.13522918	      0.57028317	     -0.00883574	      0.24721520	      0.57028317	     -0.00614667	      0.24721520	      0.46964496	     -0.00499414	      0.20733785	      0.43609889	     -0.00307307	      0.15749624	      0.40255282	     -0.03841548	      1.15018008	      2.98517071	      0.00000000	      0.00000000	      0.00000000	      0.00000000	      0.00000000	     -6.63554281	    -12.22615752	      5.29688500	     28.41537821	     40.49448195	      0.00000000	      5.00000014	     -8.86138149	    -12.27942889	     10.61187513	     32.81196424	     48.89934117	      0.00000000	      5.00000014
     14.83333333	      3.62111792	      1.36624395	    177.10365452	     -0.58197851	      0.89555488	      0.72551689	      7.01512561	      1.18274565	    -19.13091911	     19.14518646	      0.33414654	     20.78558318	     11.88398764	      0.00000000	     34.52854456	     -7.71850564	     -3.85394208	     61.86271644	      1.07970809	     10.73218907	    -18.68673587	      0.00000000	     -0.00332535	      0.10994833	      0.72620146	     -0.00617550	      0.14623128	      0.77158905	     -0.00546321	      0.26732836	      0.77158905	     -0.00380054	      0.26732836	      0.63542628	     -0.00308792	      0.22420663	      0.59003869	     -0.00190010	      0.17030996	      0.54465110	     -0.02375261	      1.24375748	      4.03891466	      0.00000000	      0.00000000	      0.00000000	      0.00000000	      0.00000000	     -3.02699510	    -14.09839457	      9.72866959	     29.55912974	     41.16840440	      0.00000000	      5.00000014	    -10.21768138	    -13.15650882	     17.35043860	     30.42019121	     49.56332371	      0.00000000	      5.00000014
